{"title":"Thunderbirds Are Go S01E16 Breakdown 1080P WEB-DL DD5 1 H 264","uid":12770137,"size":924645303,"categoryP":"video","categoryS":"hd___tv_shows","magnet":"?xt=urn:btih:cc9bd3bd84ca34b7d135054c6d3a86805740b659&amp;dn=Thunderbirds+Are+Go+S01E16+Breakdown+1080P+WEB-DL+DD5+1+H+264&amp;tr=udp%3A%2F%2Ftracker.leechers-paradise.org%3A6969&amp;tr=udp%3A%2F%2Fzer0day.ch%3A1337&amp;tr=udp%3A%2F%2Fopen.demonii.com%3A1337&amp;tr=udp%3A%2F%2Ftracker.coppersurfer.tk%3A6969&amp;tr=udp%3A%2F%2Fexodus.desync.com%3A6969","seeders":0,"leechers":0,"uploader":"jmanwf","files":1,"time":1447659838,"description":"An expedition to explore the deep interior of a glacier goes terribly wrong when the entry tunnel caves in, trapping the team of scientists inside. Virgil is called away on his birthday to help save them. Working against Virgil, however, is an unstable glacier and an epic storm on the surface. To complicate matters even more, one of the scientists refuses to go up with the rescue pod – his research is too important to abandon at this critical moment. Virgil now must find him before complete collapse and convince the scientist that his life is worth more than this discovery. They eventually work together to complete the scientist’s research, which gives Virgil a happy end to his very eventful birthday.\r\n\r\n\r\n\r\nVideo\r\nID : 2\r\nFormat : AVC\r\nFormat/Info : Advanced Video Codec\r\nFormat profile :   \r\nFormat settings, CABAC : Yes\r\nFormat settings, ReFrames : 4 frames\r\nCodec ID : avc1\r\nCodec ID/Info : Advanced Video Coding\r\nDuration : 22mn 11s\r\nBit rate : 5 041 Kbps\r\nWidth : 1 912 pixels\r\nHeight : 1 072 pixels\r\nDisplay aspect ratio : 16:9\r\nFrame rate mode : Constant\r\nFrame rate : 25.000 fps\r\nColor space : YUV\r\nChroma subsampling : 4:2:0\r\nBit depth : 8 bits\r\nScan type : Progressive\r\nBits/(Pixel*Frame) : 0.098\r\nStream size : 800 MiB (91%)\r\nLanguage : English\r\nEncoded date : UTC 2015-11-16 03:55:44\r\nTagged date : UTC 2015-11-16 03:57:58\r\nColor range : Limited\r\nColor primaries : BT.709\r\nTransfer characteristics : BT.709\r\nMatrix coefficients : BT.709\r\n\r\nAudio #1\r\nID : 1\r\nFormat : AAC\r\nFormat/Info : Advanced Audio Codec\r\nFormat profile : LC\r\nCodec ID : 40\r\nDuration : 22mn 11s\r\nBit rate mode : Variable\r\nBit rate : 125 Kbps\r\nMaximum bit rate : 202 Kbps\r\nChannel(s) : 2 channels\r\nChannel positions : Front: L R\r\nSampling rate : 48.0 KHz\r\nCompression mode : Lossy\r\nStream size : 19.8 MiB (2%)\r\nLanguage : English\r\nEncoded date : UTC 2015-11-16 03:55:44\r\nTagged date : UTC 2015-11-16 03:57:58\r\n\r\nAudio #2\r\nID : 3\r\nFormat : AC-3\r\nFormat/Info : Audio Coding 3\r\nMode extension : CM (complete main)\r\nFormat settings, Endianness : Big\r\nCodec ID : ac-3\r\nDuration : 22mn 11s\r\nBit rate mode : Constant\r\nBit rate : 384 Kbps\r\nChannel(s) : 6 channels\r\nChannel positions : Front: L C R, Side: L R, LFE\r\nSampling rate : 48.0 KHz\r\nBit depth : 16 bits\r\nCompression mode : Lossy\r\nStream size : 61.0 MiB (7%)\r\nLanguage : English\r\nEncoded date : UTC 2015-11-16 03:55:44\r\nTagged date : UTC 2015-11-16 03:57:58\r\n\r\n\r\n \nhttps://itunes.apple.com/au/tv-season/thunderbirds-are-go-vol.-2/id1050875675","torrent":{"xt":"urn:btih:cc9bd3bd84ca34b7d135054c6d3a86805740b659","amp;dn":"Thunderbirds+Are+Go+S01E16+Breakdown+1080P+WEB-DL+DD5+1+H+264","amp;tr":["udp%3A%2F%2Ftracker.leechers-paradise.org%3A6969","udp%3A%2F%2Fzer0day.ch%3A1337","udp%3A%2F%2Fopen.demonii.com%3A1337","udp%3A%2F%2Ftracker.coppersurfer.tk%3A6969","udp%3A%2F%2Fexodus.desync.com%3A6969"],"infoHash":"cc9bd3bd84ca34b7d135054c6d3a86805740b659","infoHashBuffer":{"type":"Buffer","data":[204,155,211,189,132,202,52,183,209,53,5,76,109,58,134,128,87,64,182,89]},"announce":[],"urlList":[]}}